# xmcd
#
# Track frame offsets:
#	150
#	17125
#	34295
#	53732
#	71352
#	90555
#	112695
#	130045
#	149517
#	166772
#	185072
#	198235
#	213055
#	237315
#	256087
#	273390
#	291737
#
# Disc length: 4115 seconds
#
# Revision: 1
# Processed by: cddbd v1.4PL0 Copyright (c) Steve Scherf et al.
# Submitted via: EasyCDDAExtractor 5.0.7
#
DISCID=f2101111
DTITLE=譚耀文 - 精精精選
DYEAR=1900
DGENRE=
TTITLE0=長夜怨曲
TTITLE1=忘形 champagne
TTITLE2=愛難留
TTITLE3=亞當與夏娃
TTITLE4=一點光
TTITLE5=情陷深醉夜
TTITLE6=巧合
TTITLE7=請你愛她
TTITLE8=阿彌陀
TTITLE9=我不灑脫
TTITLE10=夜深情真
TTITLE11=又是下夜雨深宵
TTITLE12=懷念
TTITLE13=困惑
TTITLE14=你是罪
TTITLE15=童年
TTITLE16=聖鬥士星矢
EXTD=
EXTT0=
EXTT1=
EXTT2=
EXTT3=
EXTT4=
EXTT5=
EXTT6=
EXTT7=
EXTT8=
EXTT9=
EXTT10=
EXTT11=
EXTT12=
EXTT13=
EXTT14=
EXTT15=
EXTT16=
PLAYORDER=
